<?xml version="1.0" encoding="UTF-8"?> <!-- Generator: Adobe Illustrator 26.5.0, SVG Export Plug-In . SVG Version: 6.00 Build 0) --> <svg xmlns="http://www.w3.org/2000/svg" xmlns:xlink="http://www.w3.org/1999/xlink" version="1.1" id="Layer_1" x="0px" y="0px" viewBox="0 0 1284 1220" style="enable-background:new 0 0 1284 1220;" xml:space="preserve"> <style type="text/css"> .st0{clip-path:url(#SVGID_00000102508793741521535140000008679656131252261264_);} .st1{fill:#F7F5FB;} .st2{fill:#181A3D;stroke:#181A3D;stroke-width:2.32;stroke-linecap:round;stroke-linejoin:round;stroke-miterlimit:1.5;} .st3{fill-rule:evenodd;clip-rule:evenodd;fill:#FEF8E7;} .st4{fill:#D69B38;} .st5{fill:none;stroke:#181A3D;stroke-width:2.32;stroke-linecap:round;stroke-linejoin:round;stroke-miterlimit:1.5;} .st6{fill:#B9B3A0;stroke:#181A3D;stroke-width:2.32;stroke-linecap:round;stroke-linejoin:round;stroke-miterlimit:1.5;} .st7{fill:#FEF8E7;} .st8{fill-rule:evenodd;clip-rule:evenodd;fill:#D69B38;} .st9{fill:#FFE2AE;} .st10{fill:#D69B38;stroke:#181A3D;stroke-width:2.32;} .st11{fill-rule:evenodd;clip-rule:evenodd;fill:#181A3D;} .st12{fill:none;stroke:#FFFFFF;stroke-width:2.32;stroke-linecap:round;stroke-linejoin:round;stroke-miterlimit:1.5;} .st13{fill:none;stroke:#181A3D;stroke-width:2.32;stroke-linecap:square;stroke-linejoin:round;stroke-miterlimit:1.5;stroke-dasharray:8,8;} .st14{fill:#181A3D;} .st15{fill:#AAE1BA;stroke:#181A3D;stroke-width:2.32;stroke-linecap:round;stroke-linejoin:round;stroke-miterlimit:1.5;} .st16{fill-rule:evenodd;clip-rule:evenodd;fill:#AAE1BA;stroke:#181A3D;stroke-width:2.32;stroke-linecap:round;stroke-linejoin:round;stroke-miterlimit:1.5;} .st17{fill-rule:evenodd;clip-rule:evenodd;fill:#F2F9F1;stroke:#181A3D;stroke-width:2.32;stroke-linecap:round;stroke-linejoin:round;stroke-miterlimit:1.5;} .st18{fill-rule:evenodd;clip-rule:evenodd;fill:#F2F9F1;filter:url(#Adobe_OpacityMaskFilter);stroke:#181A3D;stroke-width:2.32;stroke-linecap:round;stroke-linejoin:round;stroke-miterlimit:1.5;} .st19{mask:url(#mask0_1740_52061_00000118361984611441208140000007062733467895523004_);} .st20{opacity:0.3;} .st21{fill:#AAE1BA;} .st22{fill:#56C175;} .st23{fill-rule:evenodd;clip-rule:evenodd;fill:#928E82;stroke:#181A3D;stroke-width:2.32;stroke-linecap:round;stroke-linejoin:round;stroke-miterlimit:1.5;} .st24{fill:#F2F1EE;stroke:#181A3D;stroke-width:2.32;stroke-linecap:round;stroke-linejoin:round;stroke-miterlimit:1.5;} .st25{fill-rule:evenodd;clip-rule:evenodd;fill:#F2F1EE;} .st26{fill-rule:evenodd;clip-rule:evenodd;fill:#FFFFFF;filter:url(#Adobe_OpacityMaskFilter_00000042721543962296258040000010910152159700094348_);} .st27{mask:url(#path-48-inside-1_1740_52061_00000141415694461319262130000012072529711348715154_);fill:#181A3D;} .st28{fill:#181A3D;stroke:#181A3D;stroke-width:2.32;} .st29{fill:#D0F7FF;stroke:#181A3D;stroke-width:2.32;stroke-linecap:round;stroke-linejoin:round;stroke-miterlimit:1.5;} .st30{fill-rule:evenodd;clip-rule:evenodd;fill:#2568FE;stroke:#181A3D;stroke-width:2.32;stroke-linecap:round;stroke-linejoin:round;stroke-miterlimit:1.5;} .st31{fill-rule:evenodd;clip-rule:evenodd;fill:#F6FBFF;} .st32{fill-rule:evenodd;clip-rule:evenodd;fill:#F6FBFF;filter:url(#Adobe_OpacityMaskFilter_00000147205785630780123390000014602792208059967880_);} .st33{mask:url(#mask1_1740_52061_00000042011090389723326910000007707976223632586113_);} .st34{opacity:0.4;} .st35{fill:#D0F7FF;} .st36{fill:#FFE2AE;stroke:#181A3D;stroke-width:2.32;} .st37{fill:#FEF8E7;filter:url(#Adobe_OpacityMaskFilter_00000026875802949029291310000014612554310939784874_);stroke:#181A3D;stroke-width:2.32;} .st38{mask:url(#mask2_1740_52061_00000022519157502211635070000009079597697277423551_);} .st39{fill:#FEF8E7;stroke:#181A3D;stroke-width:2.32;} .st40{opacity:0.45;} .st41{fill:none;stroke:#181A3D;stroke-width:2.32;} .st42{fill:#F0E2F4;stroke:#181A3D;stroke-width:2.32;stroke-linecap:round;stroke-linejoin:round;stroke-miterlimit:1.5;} .st43{fill-rule:evenodd;clip-rule:evenodd;fill:#181A3D;stroke:#181A3D;stroke-width:2.32;stroke-linecap:round;stroke-linejoin:round;stroke-miterlimit:1.5;} .st44{fill-rule:evenodd;clip-rule:evenodd;fill:#F7F5FB;stroke:#181A3D;stroke-width:2.32;stroke-linecap:round;stroke-linejoin:round;stroke-miterlimit:1.5;} .st45{fill-rule:evenodd;clip-rule:evenodd;fill:#F7F5FB;filter:url(#Adobe_OpacityMaskFilter_00000146468645644862605250000009753307889522911886_);stroke:#181A3D;stroke-width:2.32;stroke-linecap:round;stroke-linejoin:round;stroke-miterlimit:1.5;} .st46{mask:url(#mask3_1740_52061_00000029763612231433094280000011750856893588118969_);} .st47{opacity:0.79;} .st48{fill:#F0E2F4;} .st49{fill-rule:evenodd;clip-rule:evenodd;fill:#D9D9D9;filter:url(#Adobe_OpacityMaskFilter_00000039119233846393838230000002255819745584109224_);} .st50{mask:url(#mask4_1740_52061_00000150798710313150289560000002961008929202033813_);} .st51{fill:#E1DED7;} .st52{fill:none;stroke:#181A3D;stroke-width:2.3;} .st53{fill:#FFFFFF;stroke:#181A3D;stroke-width:2.32;} .st54{fill-rule:evenodd;clip-rule:evenodd;fill:#FFFFFF;} </style> <g> <defs> <rect id="SVGID_1_" width="1284" height="1220"></rect> </defs> <clipPath id="SVGID_00000138550181266882907140000002280235979817030057_"> <use xlink:href="#SVGID_1_" style="overflow:visible;"></use> </clipPath> <g style="clip-path:url(#SVGID_00000138550181266882907140000002280235979817030057_);"> <rect class="st1" width="1284" height="1220"></rect> <path class="st2" d="M1090.5,924.2c113.8-65.7,116.7-170.6,6.3-234.3c-110.3-63.7-292.1-62.1-405.9,3.7s-116.7,170.6-6.3,234.3 C795,991.6,976.7,989.9,1090.5,924.2z"></path> <path class="st3" d="M611.6,784c9.5-24,30.5-46.9,62.9-65.6c91.7-53,240.7-53,332.4,0c38.1,22,60.3,49.7,66.8,78.3l20.2,0.6 l-27.4,54.8l-0.1,0.2l0,0.1l0,0c-10.7,21.2-30.5,41.3-59.5,58c-91.7,53-240.7,53-332.4,0c-28.6-16.5-48.3-36.2-59-57.1l-0.1-0.2 l0,0l-33-67.4L611.6,784z"></path> <path class="st4" d="M833.1,948.4V633.1h219.2c26,87.7,32.5,180.6,32.5,180.6l-25.5,49.4c0,0-27.2,37-74,56.7 C934.1,941.3,889.2,948.4,833.1,948.4z"></path> <path class="st5" d="M611.6,784c9.5-24,30.5-46.9,62.9-65.6c91.7-53,240.7-53,332.4,0c38.1,22,60.3,49.7,66.8,78.3l20.2,0.6 l-27.4,54.8l-0.1,0.2l0,0.1l0,0c-10.7,21.2-30.5,41.3-59.5,58c-91.7,53-240.7,53-332.4,0c-28.6-16.5-48.3-36.2-59-57.1l-0.1-0.2 l0,0l-33-67.4L611.6,784z"></path> <path class="st6" d="M1027.9,860.4c103.4-59.7,103.4-156.5,0-216.2c-103.4-59.7-271-59.7-374.4,0c-103.4,59.7-103.4,156.5,0,216.2 C756.9,920.1,924.5,920.1,1027.9,860.4z"></path> <path class="st7" d="M1032.3,841.6c105.9-61.1,105.9-160.2,0-221.4c-105.9-61.1-277.5-61.1-383.4,0 c-105.9,61.1-105.9,160.2,0,221.4C754.8,902.7,926.5,902.7,1032.3,841.6z"></path> <path class="st8" d="M616.8,756.8l-39.4-63.5c18.1-35.1,43.6-62.1,76.3-81l26.1,52"></path> <path class="st8" d="M1024.2,831.3l57.5-26.2c75.9-93.8-1-213-215.1-229.1v46L1024.2,831.3z"></path> <path class="st5" d="M1032.3,841.6c105.9-61.1,105.9-160.2,0-221.4c-105.9-61.1-277.5-61.1-383.4,0 c-105.9,61.1-105.9,160.2,0,221.4C754.8,902.7,926.5,902.7,1032.3,841.6z"></path> <path class="st9" d="M999,845.8c87.4-50.5,87.4-132.3,0-182.8c-87.4-50.5-229.2-50.5-316.6,0c-87.4,50.5-87.4,132.3,0,182.8 C769.8,896.3,911.5,896.3,999,845.8z"></path> <path class="st8" d="M658.1,713.2L784,669.1l60.1,21.2v131.4l-186,4c0,0-61.3-50.2-30.7-81.8C669.6,743.1,658.1,713.2,658.1,713.2 z"></path> <path class="st8" d="M1038.8,713.2l-117.3-44.1l-56,21.2v131.4l173.3,4c0,0,44.1-52.2,15.6-83.8 C1015,741.1,1038.8,713.2,1038.8,713.2z"></path> <path class="st5" d="M999,845.8c87.4-50.5,87.4-132.3,0-182.8c-87.4-50.5-229.2-50.5-316.6,0c-87.4,50.5-87.4,132.3,0,182.8 C769.8,896.3,911.5,896.3,999,845.8z"></path> <path class="st10" d="M680.4,727.1c-28.2,16.1-47.5,35.5-57.8,56.1c-8.9-20.6-8.8-42.2,0.5-62.7c9.6-21.3,29.1-41.6,58.5-58.5 c43.9-25.1,101.5-37.7,159.2-37.7c57.7,0,115.3,12.6,159.2,37.7c29.4,16.8,48.9,37.1,58.5,58.5c9.3,20.6,9.4,42.2,0.5,62.7 c-10.3-20.6-29.7-40-57.8-56.1c-44.3-25.4-102.4-38-160.3-38S724.7,701.8,680.4,727.1z"></path> <path class="st2" d="M450.1,767.5c71.9-41.5,75.1-107.1,7-146.4c-68.1-39.3-181.6-37.5-253.5,4c-71.9,41.5-75.1,107.1-7,146.4 C264.6,810.9,378.1,809.1,450.1,767.5z"></path> <path class="st7" d="M433.8,751.6c71.9-41.5,75.1-107.1,7-146.4c-68.1-39.3-181.6-37.5-253.5,4c-71.9,41.5-75.1,107.1-7,146.4 C248.3,794.9,361.8,793.1,433.8,751.6z"></path> <path class="st11" d="M236.4,721.8l160.8,50.9c24.7-8.8,94.8-32.4,102.7-90.1l-112.7-49.9"></path> <path class="st5" d="M236.4,721.8l160.8,50.9c24.7-8.8,94.8-32.4,102.7-90.1l-112.7-49.9"></path> <path class="st5" d="M433.8,751.6c71.9-41.5,75.1-107.1,7-146.4c-68.1-39.3-181.6-37.5-253.5,4c-71.9,41.5-75.1,107.1-7,146.4 C248.3,794.9,361.8,793.1,433.8,751.6z"></path> <path class="st5" d="M412.4,739.3c59.5-34.4,62.1-88.6,5.8-121.1c-56.3-32.5-150.2-31-209.7,3.3c-59.5,34.4-62.1,88.6-5.8,121.1 C259,775.1,352.9,773.6,412.4,739.3z"></path> <path class="st12" d="M413.8,740.2c60.3-34.8,62.9-89.7,5.9-122.7c-57.1-32.9-152.2-31.4-212.5,3.4 c-60.3,34.8-62.9,89.7-5.9,122.7C258.3,776.5,353.5,775,413.8,740.2z"></path> <path class="st13" d="M690.7,402.6V575"></path> <path class="st13" d="M843.1,455.9V688"></path> <path class="st13" d="M866.6,455.9v291.6"></path> <path class="st13" d="M798.6,632.9v114.6"></path> <path class="st13" d="M1124.7,515.8v257.1"></path> <path class="st14" d="M690.9,401.5L843,489.2V298.7L831.2,270l-165.7,39.3v14.3l6.4,7.4c5.6,6.5,9.3,14.6,10.9,23.6L690.9,401.5z"></path> <path class="st5" d="M665.5,309.3l22.5,26.5L843,298.7 M665.5,309.3L831.2,270l11.8,28.7 M665.5,309.3v14.3l6.4,7.4 c5.6,6.5,9.3,14.6,10.9,23.6l8.1,46.9L843,489.2V298.7"></path> <path class="st15" d="M688.1,335.8l-22.4-26.5c62.9-30.1,101.1-43.6,177.4-43.6v33.1L688.1,335.8z"></path> <path class="st16" d="M698.3,392.9l-9.7-57.3l154.5,89.6v52.8L698.3,392.9z"></path> <path class="st17" d="M688,335.9l155.1,89.3V298.7C780.7,303.1,746.9,312.1,688,335.9z"></path> <defs> <filter id="Adobe_OpacityMaskFilter" filterUnits="userSpaceOnUse" x="686.8" y="137.7" width="227.5" height="406.9"> <feColorMatrix type="matrix" values="1 0 0 0 0 0 1 0 0 0 0 0 1 0 0 0 0 0 1 0"></feColorMatrix> </filter> </defs> <mask maskUnits="userSpaceOnUse" x="686.8" y="137.7" width="227.5" height="406.9" id="mask0_1740_52061_00000118361984611441208140000007062733467895523004_"> <path class="st18" d="M688,335.9l155.1,89.3V298.7C780.7,303.1,746.9,312.1,688,335.9z"></path> </mask> <g class="st19"> <g class="st20"> <path class="st21" d="M914,184.1L689.6,339.1c-0.1,0-0.1,0.1-0.1,0.2v22.5c0,0.2,0.2,0.3,0.3,0.2L914.2,207 c0.1,0,0.1-0.1,0.1-0.2v-22.5C914.3,184.1,914.1,184,914,184.1z"></path> <path class="st21" d="M914,137.8L689.6,292.7c-0.1,0-0.1,0.1-0.1,0.2v22.5c0,0.2,0.2,0.3,0.3,0.2l224.4-154.9 c0.1,0,0.1-0.1,0.1-0.2v-22.5C914.3,137.8,914.1,137.7,914,137.8z"></path> <path class="st21" d="M914,275.2L689.6,430.1c-0.1,0-0.1,0.1-0.1,0.2v22.5c0,0.2,0.2,0.3,0.3,0.2L914.2,298 c0.1,0,0.1-0.1,0.1-0.2v-22.5C914.3,275.2,914.1,275.1,914,275.2z"></path> <path class="st21" d="M914,229.7L689.6,384.7c-0.1,0-0.1,0.1-0.1,0.2v22.5c0,0.2,0.2,0.3,0.3,0.2l224.4-154.9 c0.1,0,0.1-0.1,0.1-0.2v-22.5C914.3,229.7,914.1,229.7,914,229.7z"></path> <path class="st22" d="M749.6,349.1l54.9-19.7l-8-7.5l-53.8,19.6L749.6,349.1z"></path> <path class="st21" d="M914,320.8L689.6,475.7c-0.1,0-0.1,0.1-0.1,0.2v22.5c0,0.2,0.2,0.3,0.3,0.2l224.4-154.9 c0.1,0,0.1-0.1,0.1-0.2V321C914.3,320.8,914.1,320.7,914,320.8z"></path> <path class="st21" d="M914,366.8L689.6,521.8c-0.1,0-0.1,0.1-0.1,0.2v22.5c0,0.2,0.2,0.3,0.3,0.2l224.4-154.9 c0.1,0,0.1-0.1,0.1-0.2V367C914.3,366.8,914.1,366.7,914,366.8z"></path> </g> <path class="st5" d="M688,335.9l155.1,89.3V298.7C780.7,303.1,746.9,312.1,688,335.9z"></path> </g> <path class="st11" d="M1118,502.3l6.7,12.3l-15.8,10.6c-9.4,6.3-16.6,15.5-20.7,26.1l-18.8,49.5H866.6v-9.7h193.2l25-63 l-63.5-89.1h29.6L1118,502.3z"></path> <path class="st5" d="M1118,502.3l-67.1-63.4h-29.6l63.5,89.1 M1118,502.3l6.7,12.3l-15.8,10.6c-9.4,6.3-16.6,15.5-20.7,26.1 l-18.8,49.5H866.6v-9.7h193.2l25-63 M1118,502.3l-33.2,25.8"></path> <path class="st23" d="M1061.9,591.4l23.3-63.2l-218.7,0.1v62.8L1061.9,591.4z"></path> <path class="st24" d="M866.2,504.5V360.1c114.2,0,212.6,62.7,252.3,145.1l-34.3,23.2L866.2,504.5z"></path> <path class="st25" d="M1085,527.8c-39.8-78.1-116.6-131.2-218.7-131.2v131.6l218.9-0.1"></path> <path class="st5" d="M1085,527.8c-39.8-78.1-116.6-131.2-218.7-131.2v131.6l218.9-0.1"></path> <path class="st11" d="M1030.3,824.7c-8.5,7.5-18.4,14.6-29.9,21.1c-21.3,12.2-45.8,21.4-71.9,27.7l-62.2-47.8L1030.3,824.7z"></path> <defs> <filter id="Adobe_OpacityMaskFilter_00000031918784740300760290000000935191251065250977_" filterUnits="userSpaceOnUse" x="859.5" y="822.4" width="177" height="53.7"> <feColorMatrix type="matrix" values="1 0 0 0 0 0 1 0 0 0 0 0 1 0 0 0 0 0 1 0"></feColorMatrix> </filter> </defs> <mask maskUnits="userSpaceOnUse" x="859.5" y="822.4" width="177" height="53.7" id="path-48-inside-1_1740_52061_00000141415694461319262130000012072529711348715154_"> <path style="fill-rule:evenodd;clip-rule:evenodd;fill:#FFFFFF;filter:url(#Adobe_OpacityMaskFilter_00000031918784740300760290000000935191251065250977_);" d=" M1030.3,824.7c-8.5,7.5-18.4,14.6-29.9,21.1c-21.3,12.2-45.8,21.4-71.9,27.7l-62.2-47.8L1030.3,824.7z"></path> </mask> <path class="st27" d="M1000.4,845.8l1.2,2L1000.4,845.8z M1030.3,824.7l1.5,1.7l4.7-4.1l-6.2,0L1030.3,824.7z M928.5,873.6 l-1.4,1.8l0.9,0.7l1.1-0.3L928.5,873.6z M866.3,825.8l0-2.3l-6.8,0l5.4,4.1L866.3,825.8z M1001.6,847.9 c11.6-6.6,21.7-13.8,30.3-21.4l-3.1-3.5c-8.4,7.4-18.2,14.4-29.5,20.8L1001.6,847.9z M929.1,875.8c26.3-6.3,51-15.7,72.5-28 l-2.3-4c-21.1,12.1-45.4,21.2-71.3,27.5L929.1,875.8z M929.9,871.7L867.7,824l-2.8,3.7l62.2,47.8L929.9,871.7z M866.3,828.1 l164-1.1l0-4.6l-164,1.1L866.3,828.1z"></path> <path class="st28" d="M665.4,674.5l17.8-2.8c56.3-32.9,90.1-46,159.8-46.7v64.4c-116.8,0-191.6,39.3-220.8,93.7 C610.4,739.1,616.2,715.1,665.4,674.5z"></path> <path class="st28" d="M866.5,689.4c80.9,0,160.9,38.4,195.4,93.8c24.1-101.9-102-152.5-195.4-157.6V689.4z"></path> <path class="st11" d="M546.8,577.7l-6.3,9.9l14.8,10c10,6.8,17.6,16.7,21.4,28.2l16.1,48.1h205.9v-9.7H602.3l-22-63l63.5-89.1 l-29.3-21.7L546.8,577.7z"></path> <path class="st5" d="M546.8,577.7l67.8-87.5l29.3,21.7l-63.5,89.1 M546.8,577.7l-6.3,9.9l14.8,10c10,6.8,17.6,16.7,21.4,28.2 l16.1,48.1h205.9v-9.7H602.3l-22-63 M546.8,577.7l33.6,23.4"></path> <path class="st29" d="M614.6,490.2l29.3,21.7c-32.5,28.5-46.1,48.3-63.5,89.1l-33.6-23.4C567.3,539,581.7,519.4,614.6,490.2z"></path> <path class="st30" d="M600.2,664.5l-20.3-63.2l218.7,0.1v62.8L600.2,664.5z"></path> <path class="st31" d="M580.1,600.7c16.6-40.1,29.6-60.2,64-88.9l154.7,89.3L579.9,601"></path> <path class="st5" d="M580.1,600.7c16.6-40.1,29.6-60.2,64-88.9l154.7,89.3L579.9,601"></path> <defs> <filter id="Adobe_OpacityMaskFilter_00000088847062311745395220000013329526623558615223_" filterUnits="userSpaceOnUse" x="578.8" y="350.7" width="227.5" height="406.9"> <feColorMatrix type="matrix" values="1 0 0 0 0 0 1 0 0 0 0 0 1 0 0 0 0 0 1 0"></feColorMatrix> </filter> </defs> <mask maskUnits="userSpaceOnUse" x="578.8" y="350.7" width="227.5" height="406.9" id="mask1_1740_52061_00000042011090389723326910000007707976223632586113_"> <path style="fill-rule:evenodd;clip-rule:evenodd;fill:#F6FBFF;filter:url(#Adobe_OpacityMaskFilter_00000088847062311745395220000013329526623558615223_);" d=" M580.1,600.7c16.6-40.1,29.6-60.2,64-88.9l154.7,89.3L579.9,601"></path> <path class="st5" d="M580.1,600.7c16.6-40.1,29.6-60.2,64-88.9l154.7,89.3L579.9,601"></path> </mask> <g class="st33"> <g class="st34"> <path class="st35" d="M806,397.1L581.6,552.1c-0.1,0-0.1,0.1-0.1,0.2v22.5c0,0.2,0.2,0.3,0.3,0.2L806.2,420 c0.1,0,0.1-0.1,0.1-0.2v-22.5C806.3,397.1,806.1,397,806,397.1z"></path> <path class="st35" d="M806,350.8L581.6,505.7c-0.1,0-0.1,0.1-0.1,0.2v22.5c0,0.2,0.2,0.3,0.3,0.2l224.4-154.9 c0.1,0,0.1-0.1,0.1-0.2v-22.5C806.3,350.8,806.1,350.7,806,350.8z"></path> <path class="st35" d="M806,488.2L581.6,643.1c-0.1,0-0.1,0.1-0.1,0.2v22.5c0,0.2,0.2,0.3,0.3,0.2L806.2,511 c0.1,0,0.1-0.1,0.1-0.2v-22.5C806.3,488.2,806.1,488.1,806,488.2z"></path> <path class="st35" d="M806,442.7L581.6,597.7c-0.1,0-0.1,0.1-0.1,0.2v22.5c0,0.2,0.2,0.3,0.3,0.2l224.4-154.9 c0.1,0,0.1-0.1,0.1-0.2v-22.5C806.3,442.7,806.1,442.7,806,442.7z"></path> <path class="st35" d="M806,533.8L581.6,688.7c-0.1,0-0.1,0.1-0.1,0.2v22.5c0,0.2,0.2,0.3,0.3,0.2l224.4-154.9 c0.1,0,0.1-0.1,0.1-0.2V534C806.3,533.8,806.1,533.7,806,533.8z"></path> <path class="st35" d="M806,579.8L581.6,734.8c-0.1,0-0.1,0.1-0.1,0.2v22.5c0,0.2,0.2,0.3,0.3,0.2l224.4-154.9 c0.1,0,0.1-0.1,0.1-0.2V580C806.3,579.8,806.1,579.7,806,579.8z"></path> </g> <path class="st5" d="M580.1,600.7c16.6-40.1,29.6-60.2,64-88.9l154.7,89.3L579.9,601"></path> </g> <path class="st10" d="M1108.1,750c-34.2,181.8-477.8,198.7-537.6,0c0,0,0,0,0,0l-1.5-16.5c0-0.2,0.2-0.3,0.3-0.2l49.6,35.3 c0,0,0.1,0,0.1,0h445.4c0,0,0.1,0,0.1,0l45.6-37c0.1-0.1,0.3,0,0.3,0.2L1108.1,750z"></path> <path class="st36" d="M570.5,732.5l46.1,17.6h447.9l45.1-19.4C1075.3,919.5,630.3,938.9,570.5,732.5z"></path> <defs> <filter id="Adobe_OpacityMaskFilter_00000127024586472886801600000017888356410119987596_" filterUnits="userSpaceOnUse" x="615.7" y="570.8" width="452.2" height="470.3"> <feColorMatrix type="matrix" values="1 0 0 0 0 0 1 0 0 0 0 0 1 0 0 0 0 0 1 0"></feColorMatrix> </filter> </defs> <mask maskUnits="userSpaceOnUse" x="615.7" y="570.8" width="452.2" height="470.3" id="mask2_1740_52061_00000022519157502211635070000009079597697277423551_"> <path style="fill:#FEF8E7;filter:url(#Adobe_OpacityMaskFilter_00000127024586472886801600000017888356410119987596_);stroke:#181A3D;stroke-width:2.32;" d=" M1064.7,749.2l-447.8,0.4c1.5,38.6,60.1,121.2,223.5,121.2C1003.7,870.8,1060.2,789.5,1064.7,749.2z"></path> </mask> <g class="st38"> <path class="st39" d="M1064.7,749.2l-447.8,0.4c1.5,38.6,60.1,121.2,223.5,121.2C1003.7,870.8,1060.2,789.5,1064.7,749.2z"></path> <g class="st40"> <path class="st9" d="M843,635.1L618.6,790.1c-0.1,0-0.1,0.1-0.1,0.2v22.5c0,0.2,0.2,0.3,0.3,0.2L843.2,658 c0.1,0,0.1-0.1,0.1-0.2v-22.5C843.3,635.1,843.1,635,843,635.1z"></path> <path class="st9" d="M843,588.8L618.6,743.7c-0.1,0-0.1,0.1-0.1,0.2v22.5c0,0.2,0.2,0.3,0.3,0.2l224.4-154.9 c0.1,0,0.1-0.1,0.1-0.2v-22.5C843.3,588.8,843.1,588.7,843,588.8z"></path> <path class="st9" d="M843,726.2L618.6,881.1c-0.1,0-0.1,0.1-0.1,0.2v22.5c0,0.2,0.2,0.3,0.3,0.2L843.2,749 c0.1,0,0.1-0.1,0.1-0.2v-22.5C843.3,726.2,843.1,726.1,843,726.2z"></path> <path class="st9" d="M843,680.7L618.6,835.7c-0.1,0-0.1,0.1-0.1,0.2v22.5c0,0.2,0.2,0.3,0.3,0.2l224.4-154.9 c0.1,0,0.1-0.1,0.1-0.2v-22.5C843.3,680.7,843.1,680.7,843,680.7z"></path> <path class="st9" d="M843,771.8L618.6,926.7c-0.1,0-0.1,0.1-0.1,0.2v22.5c0,0.2,0.2,0.3,0.3,0.2l224.4-154.9 c0.1,0,0.1-0.1,0.1-0.2V772C843.3,771.8,843.1,771.7,843,771.8z"></path> <path class="st9" d="M843,817.8L618.6,972.8c-0.1,0-0.1,0.1-0.1,0.2v22.5c0,0.2,0.2,0.3,0.3,0.2l224.4-154.9 c0.1,0,0.1-0.1,0.1-0.2V818C843.3,817.8,843.1,817.7,843,817.8z"></path> <path class="st9" d="M843,863.2l-224.4,154.9c-0.1,0-0.1,0.1-0.1,0.2v22.5c0,0.2,0.2,0.3,0.3,0.2l224.4-154.9 c0.1,0,0.1-0.1,0.1-0.2v-22.5C843.3,863.2,843.1,863.2,843,863.2z"></path> </g> <g class="st40"> <path class="st9" d="M1067.6,616.8L843.1,771.7c-0.1,0-0.1,0.1-0.1,0.2v22.5c0,0.2,0.2,0.3,0.3,0.2l224.4-154.9 c0,0,0.1-0.1,0.1-0.2V617C1067.9,616.8,1067.7,616.7,1067.6,616.8z"></path> <path class="st9" d="M1067.6,570.8L843.1,725.7c-0.1,0-0.1,0.1-0.1,0.2v22.5c0,0.2,0.2,0.3,0.3,0.2l224.4-154.9 c0,0,0.1-0.1,0.1-0.2V571C1067.9,570.8,1067.7,570.7,1067.6,570.8z"></path> <path class="st9" d="M1067.6,708.2L843.1,863.2c-0.1,0-0.1,0.1-0.1,0.2v22.5c0,0.2,0.2,0.3,0.3,0.2l224.4-154.9 c0,0,0.1-0.1,0.1-0.2v-22.5C1067.9,708.2,1067.7,708.1,1067.6,708.2z"></path> <path class="st9" d="M1067.6,662.8L843.1,817.7c-0.1,0-0.1,0.1-0.1,0.2v22.5c0,0.2,0.2,0.3,0.3,0.2l224.4-154.9 c0,0,0.1-0.1,0.1-0.2V663C1067.9,662.8,1067.7,662.7,1067.6,662.8z"></path> <path class="st9" d="M1067.6,753.8L843.1,908.8c-0.1,0-0.1,0.1-0.1,0.2v22.5c0,0.2,0.2,0.3,0.3,0.2l224.4-154.9 c0,0,0.1-0.1,0.1-0.2V754C1067.9,753.8,1067.7,753.8,1067.6,753.8z"></path> <path class="st9" d="M1067.6,799.9L843.1,954.8c-0.1,0-0.1,0.1-0.1,0.2v22.5c0,0.2,0.2,0.3,0.3,0.2l224.4-154.9 c0,0,0.1-0.1,0.1-0.2V800C1067.9,799.9,1067.7,799.8,1067.6,799.9z"></path> </g> <path class="st41" d="M1064.7,749.2l-447.8,0.4c1.5,38.6,60.1,121.2,223.5,121.2C1003.7,870.8,1060.2,789.5,1064.7,749.2z"></path> </g> <path class="st14" d="M387.8,634.2l-152.1,87.7V531.4l11.8-28.7L413.2,542v14.3l-6.4,7.4c-5.6,6.5-9.3,14.6-10.9,23.6L387.8,634.2 z"></path> <path class="st5" d="M413.2,542l-22.5,26.5l-154.9-37.1 M413.2,542l-165.7-39.3l-11.8,28.7 M413.2,542v14.3l-6.4,7.4 c-5.6,6.5-9.3,14.6-10.9,23.6l-8.1,46.9l-152.1,87.7V531.4"></path> <path class="st42" d="M390.6,568.5L413,542c-62.9-30.1-101.1-43.6-177.4-43.6v33.1L390.6,568.5z"></path> <path class="st43" d="M380.5,625.5l9.7-57.3l-154.5,89.6v52.8L380.5,625.5z"></path> <path class="st44" d="M390.7,568.6l-155.1,89.3V531.4C298,535.7,331.8,544.7,390.7,568.6z"></path> <defs> <filter id="Adobe_OpacityMaskFilter_00000142856975807171281330000006617250891646288520_" filterUnits="userSpaceOnUse" x="234.5" y="370.7" width="227.8" height="406.9"> <feColorMatrix type="matrix" values="1 0 0 0 0 0 1 0 0 0 0 0 1 0 0 0 0 0 1 0"></feColorMatrix> </filter> </defs> <mask maskUnits="userSpaceOnUse" x="234.5" y="370.7" width="227.8" height="406.9" id="mask3_1740_52061_00000029763612231433094280000011750856893588118969_"> <path style="fill-rule:evenodd;clip-rule:evenodd;fill:#F7F5FB;filter:url(#Adobe_OpacityMaskFilter_00000142856975807171281330000006617250891646288520_);stroke:#181A3D;stroke-width:2.32;stroke-linecap:round;stroke-linejoin:round;stroke-miterlimit:1.5;" d=" M390.7,568.6l-155.1,89.3V531.4C298,535.7,331.8,544.7,390.7,568.6z"></path> </mask> <g class="st46"> <g class="st47"> <path class="st48" d="M237.8,417.1l224.4,154.9c0.1,0,0.1,0.1,0.1,0.2v22.5c0,0.2-0.2,0.3-0.3,0.2L237.6,440 c-0.1,0-0.1-0.1-0.1-0.2v-22.5C237.5,417.1,237.7,417,237.8,417.1z"></path> <path class="st48" d="M237.8,370.8l224.4,154.9c0.1,0,0.1,0.1,0.1,0.2v22.5c0,0.2-0.2,0.3-0.3,0.2L237.6,393.6 c-0.1,0-0.1-0.1-0.1-0.2v-22.5C237.5,370.8,237.7,370.7,237.8,370.8z"></path> <path class="st48" d="M237.8,508.2l224.4,154.9c0.1,0,0.1,0.1,0.1,0.2v22.5c0,0.2-0.2,0.3-0.3,0.2L237.6,531 c-0.1,0-0.1-0.1-0.1-0.2v-22.5C237.5,508.2,237.7,508.1,237.8,508.2z"></path> <path class="st48" d="M237.8,462.7l224.4,154.9c0.1,0,0.1,0.1,0.1,0.2v22.5c0,0.2-0.2,0.3-0.3,0.2L237.6,485.6 c-0.1,0-0.1-0.1-0.1-0.2v-22.5C237.5,462.7,237.7,462.7,237.8,462.7z"></path> <path class="st48" d="M237.8,553.8l224.4,154.9c0.1,0,0.1,0.1,0.1,0.2v22.5c0,0.2-0.2,0.3-0.3,0.2L237.6,576.6 c-0.1,0-0.1-0.1-0.1-0.2V554C237.5,553.8,237.7,553.7,237.8,553.8z"></path> <path class="st48" d="M237.8,599.8l224.4,154.9c0.1,0,0.1,0.1,0.1,0.2v22.5c0,0.2-0.2,0.3-0.3,0.2L237.6,622.7 c-0.1,0-0.1-0.1-0.1-0.2V600C237.5,599.8,237.7,599.7,237.8,599.8z"></path> </g> <path class="st5" d="M390.7,568.6l-155.1,89.3V531.4C298,535.7,331.8,544.7,390.7,568.6z"></path> </g> <path class="st5" d="M1085,527.8c-39.8-78.1-116.6-131.2-218.7-131.2v131.6l218.9-0.1"></path> <defs> <filter id="Adobe_OpacityMaskFilter_00000018926603149820401030000000800223414662095548_" filterUnits="userSpaceOnUse" x="865.1" y="235.7" width="227.2" height="406.9"> <feColorMatrix type="matrix" values="1 0 0 0 0 0 1 0 0 0 0 0 1 0 0 0 0 0 1 0"></feColorMatrix> </filter> </defs> <mask maskUnits="userSpaceOnUse" x="865.1" y="235.7" width="227.2" height="406.9" id="mask4_1740_52061_00000150798710313150289560000002961008929202033813_"> <path style="fill-rule:evenodd;clip-rule:evenodd;fill:#D9D9D9;filter:url(#Adobe_OpacityMaskFilter_00000018926603149820401030000000800223414662095548_);" d=" M1085,527.8c-39.8-78.1-116.6-131.2-218.7-131.2v131.6l218.9-0.1"></path> <path class="st5" d="M1085,527.8c-39.8-78.1-116.6-131.2-218.7-131.2v131.6l218.9-0.1"></path> </mask> <g class="st50"> <path class="st51" d="M1092,282.1L867.6,437.1c-0.1,0-0.1,0.1-0.1,0.2v22.5c0,0.2,0.2,0.3,0.3,0.2L1092.2,305 c0.1,0,0.1-0.1,0.1-0.2v-22.5C1092.3,282.1,1092.1,282,1092,282.1z"></path> <path class="st51" d="M1092,235.8L867.6,390.7c-0.1,0-0.1,0.1-0.1,0.2v22.5c0,0.2,0.2,0.3,0.3,0.2l224.4-154.9 c0.1,0,0.1-0.1,0.1-0.2v-22.5C1092.3,235.8,1092.1,235.7,1092,235.8z"></path> <path class="st51" d="M1092,373.2L867.6,528.1c-0.1,0-0.1,0.1-0.1,0.2v22.5c0,0.2,0.2,0.3,0.3,0.2L1092.2,396 c0.1,0,0.1-0.1,0.1-0.2v-22.5C1092.3,373.2,1092.1,373.1,1092,373.2z"></path> <path class="st51" d="M1092,327.7L867.6,482.7c-0.1,0-0.1,0.1-0.1,0.2v22.5c0,0.2,0.2,0.3,0.3,0.2l224.4-154.9 c0.1,0,0.1-0.1,0.1-0.2v-22.5C1092.3,327.7,1092.1,327.7,1092,327.7z"></path> <path class="st51" d="M1092,418.8L867.6,573.7c-0.1,0-0.1,0.1-0.1,0.2v22.5c0,0.2,0.2,0.3,0.3,0.2l224.4-154.9 c0.1,0,0.1-0.1,0.1-0.2V419C1092.3,418.8,1092.1,418.7,1092,418.8z"></path> <path class="st51" d="M1092,464.8L867.6,619.8c-0.1,0-0.1,0.1-0.1,0.2v22.5c0,0.2,0.2,0.3,0.3,0.2l224.4-154.9 c0.1,0,0.1-0.1,0.1-0.2V465C1092.3,464.8,1092.1,464.7,1092,464.8z"></path> <path class="st5" d="M1085,527.8c-39.8-78.1-116.6-131.2-218.7-131.2v131.6l218.9-0.1"></path> </g> <path class="st52" d="M899,550.5h16.2"></path> <path class="st52" d="M942.8,576.8H959"></path> <path class="st52" d="M949.5,567.3h16.2"></path> <path class="st52" d="M995.6,544.2h16.2"></path> <path class="st52" d="M1030.7,562.1h16.2"></path> <path class="st52" d="M747.2,648.2h16.2"></path> <path class="st52" d="M730,636.6h16.2"></path> <path class="st52" d="M669.5,648.2h16.2"></path> <path class="st52" d="M647.8,615.6H664"></path> <path class="st52" d="M617.9,636.6h16.2"></path> <path class="st52" d="M713.5,364.4l13.8,7.4"></path> <path class="st52" d="M720.4,375.5l13.8,7.4"></path> <path class="st52" d="M781.7,406.7l13.8,7.4"></path> <path class="st52" d="M739,399.4l13.8,7.4"></path> <path class="st52" d="M816.4,448.5l13.8,7.4"></path> <path class="st51" d="M995.8,475.3l-51.3-27.8l9.1-6.2l50.2,27.5L995.8,475.3z"></path> <path class="st36" d="M975.7,309.6c0.9-3,4.4-4.4,7.1-2.8l65.1,38.6c2.7,1.6,3.9,4.8,3.1,7.8l-19.2,65.2c-0.9,3-4.4,4.4-7.1,2.8 l-12.6-7.5l-7.5-4.4c-1.8-1-4-0.2-4.6,1.8l-15.9,52.7l-17-9.6l15-51.1c1.1-3.6-0.5-7.4-3.7-9.3l-5-2.9l-13.9-8.3 c-2.7-1.6-4-4.8-3.1-7.8L975.7,309.6z"></path> <path class="st36" d="M777.7,196.9c-0.8-2.8-3.8-4.2-6.5-3.1l-67,27.1c-3.3,1.3-5,4.9-4,8.3l19.3,65.6c0.8,2.6,3.6,4.1,6.2,3.2 l23.1-7.9c1.7-0.6,3.5,0.4,4,2.1l14,46.8l16.8-6.3l-13.6-45.6c-0.8-2.5,0.5-5.2,3-6.2l20.2-8.4c3.2-1.3,4.9-4.9,4-8.2L777.7,196.9 z"></path> <path class="st28" d="M376.9,922.2L376.9,922.2L376.9,922.2l13,3.2c2.4,0.6,4.9-0.3,6.4-2.3l83.3-112.2c1.8-2.4,4-4.4,6.6-5.8 l19-10.5c2.4-1.3,5.4,0.3,5.7,3l1.2,13.7c0.1,1.4-0.3,2.8-1.1,4l-83.5,113.3c-1.8,2.4-0.5,5.8,2.4,6.5l11.8,2.9l20.9,5.1 c4.7,1.1,6.8,6.7,3.9,10.6l-26.4,36.7c-3.1,4.3-8.4,6.2-13.5,5L329.2,971c-4.7-1.2-6.7-6.7-3.9-10.6l26.2-36.5 c3.1-4.4,8.7-6.3,13.9-4.9L376.9,922.2z"></path> <path class="st36" d="M376.9,915.6L376.9,915.6L376.9,915.6l13,3.2c2.4,0.6,4.9-0.3,6.4-2.3l83.3-112.2c1.8-2.4,4-4.4,6.6-5.8 l19-10.5c2.4-1.3,5.4,0.3,5.7,3l1.2,13.7c0.1,1.4-0.3,2.8-1.1,4l-83.5,113.3c-1.8,2.4-0.5,5.8,2.4,6.5l11.8,2.9l20.9,5.1 c4.7,1.1,6.8,6.7,3.9,10.6l-26.4,36.7c-3.1,4.3-8.4,6.2-13.5,5l-97.5-24.2c-4.7-1.2-6.7-6.7-3.9-10.6l26.2-36.5 c3.1-4.4,8.7-6.3,13.9-4.9L376.9,915.6z"></path> <path class="st53" d="M740.1,220c15.2-6.7,25,16.2,7.2,22.9C730.5,249.2,725.1,225.7,740.1,220z"></path> <path class="st53" d="M774.5,263.2l-37.3,14l-2.7-9c-2.2-7.5,1.6-15.4,8.9-18.2l12.1-4.8c6.6-2.6,13.9,1,15.9,7.8L774.5,263.2z"></path> <path class="st53" d="M982.7,361.9l3.9-12.1c0-0.1,0.1-0.1,0.2-0.1l38.3,1.5c0.1,0,0.2,0.1,0.2,0.3l-11.5,39.5 c0,0.1-0.2,0.2-0.3,0.1l-30.7-28.9C982.7,362,982.7,361.9,982.7,361.9z"></path> <path class="st53" d="M982.7,361.8l4-11.7c0-0.1,0-0.2-0.1-0.2l-4.7-2.4c-0.1-0.1-0.2,0-0.3,0.1l-3.9,11.5c0,0.1,0,0.2,0.1,0.2 l4.6,2.6C982.6,361.9,982.7,361.9,982.7,361.8z"></path> <path class="st41" d="M990.7,371.2l-1.1,1.4c-1.6,2-1.4,4.9,0.4,6.7l4.1,4c2.1,2,5.4,1.8,7.3-0.3l1.3-1.5"></path> <path class="st54" d="M378.6,963.9l2.9-4.3c-1.4-0.8-2.7-1.6-3.8-2.6l-4.7,1.4l-3.5-7l3.8-1.1c-0.2-0.7-0.3-1.5-0.3-2.3 c0-1,0.1-1.9,0.4-2.8l-5.6-1.5l5-6.9l5.7,1.4c1.7-1.3,3.8-2.5,6.2-3.4l-1.7-2.8l8.5-2.3l1.9,3c1.4-0.1,2.8-0.2,4.2-0.2 c0.8,0,1.5,0,2.3,0.1l2.2-3.3l10.4,2.3l-2.1,3.2c2,0.8,3.8,1.7,5.4,2.8l5.2-1.6l4.5,6.8l-4.1,1.2c0.5,1.3,0.8,2.6,0.8,4 c0,0.4,0,0.9-0.1,1.3l6.1,1.5l-4.7,7.3l-5.6-1.4c-1.8,1.6-4.1,3.1-6.7,4.2l1.7,2.7l-9.3,2.3l-1.6-2.7c-1.4,0.2-2.9,0.2-4.4,0.2 c-2.1,0-4.1-0.2-6-0.5l-2.4,3.7L378.6,963.9z"></path> <path class="st14" d="M381.5,959.6l1,0.7l0.7-1.1l-1.1-0.6L381.5,959.6z M378.6,963.9l-1-0.7l-0.9,1.4l1.6,0.4L378.6,963.9z M377.8,957l0.8-0.9l-0.5-0.4l-0.6,0.2L377.8,957z M373.1,958.4l-1,0.5l0.4,0.9l0.9-0.3L373.1,958.4z M369.6,951.4l-0.3-1.1 l-1.3,0.4l0.6,1.2L369.6,951.4z M373.4,950.2l0.3,1.1l1-0.3l-0.2-1.1L373.4,950.2z M373.5,945.1l1.1,0.3l0.3-1.1l-1.2-0.3 L373.5,945.1z M368,943.7L367,943l-1,1.4l1.6,0.4L368,943.7z M373,936.8l0.3-1.1l-0.8-0.2l-0.5,0.6L373,936.8z M378.6,938.2 l-0.3,1.1l0.5,0.1l0.4-0.3L378.6,938.2z M384.8,934.8l0.4,1.1l1.3-0.5l-0.7-1.2L384.8,934.8z M383.1,932l-0.3-1.1l-1.5,0.4 l0.8,1.3L383.1,932z M391.6,929.7l1-0.6l-0.5-0.7l-0.8,0.2L391.6,929.7z M393.5,932.7l-1,0.6l0.4,0.6l0.7-0.1L393.5,932.7z M400,932.5l-0.1,1.2l0.7,0l0.4-0.5L400,932.5z M402.2,929.2l0.3-1.1l-0.8-0.2l-0.4,0.6L402.2,929.2z M412.6,931.5l1,0.6l0.9-1.4 l-1.6-0.4L412.6,931.5z M410.5,934.7l-1-0.6l-0.8,1.2l1.4,0.5L410.5,934.7z M415.8,937.5l-0.7,1l0.5,0.3l0.5-0.2L415.8,937.5z M421,935.9l1-0.6l-0.5-0.7l-0.8,0.2L421,935.9z M425.5,942.7l0.3,1.1l1.5-0.4l-0.9-1.3L425.5,942.7z M421.4,943.9l-0.3-1.1 l-1.2,0.4l0.5,1.2L421.4,943.9z M422.2,949.3l-1.1-0.2l-0.1,1l1,0.3L422.2,949.3z M428.3,950.8l1,0.6l0.9-1.4l-1.6-0.4 L428.3,950.8z M423.6,958.1l-0.3,1.1l0.8,0.2l0.5-0.7L423.6,958.1z M418,956.7l0.3-1.1l-0.6-0.2l-0.5,0.4L418,956.7z M411.3,960.8 l-0.4-1.1l-1.3,0.5l0.7,1.2L411.3,960.8z M413,963.6l0.3,1.1l1.6-0.4L414,963L413,963.6z M403.7,965.9l-1,0.6l0.4,0.7l0.8-0.2 L403.7,965.9z M402.1,963.2l1-0.6l-0.4-0.6l-0.7,0.1L402.1,963.2z M391.7,963l0.2-1.1l-0.7-0.1l-0.4,0.6L391.7,963z M389.3,966.7 l-0.3,1.1l0.8,0.2l0.5-0.7L389.3,966.7z M380.6,959l-2.9,4.3l1.9,1.3l2.9-4.3L380.6,959z M377,957.9c1.2,1,2.5,1.9,4,2.7l1.1-2 c-1.3-0.7-2.5-1.6-3.6-2.5L377,957.9z M377.4,955.9l-4.7,1.4l0.7,2.2l4.7-1.4L377.4,955.9z M374.1,957.9l-3.5-7l-2.1,1l3.5,7 L374.1,957.9z M369.9,952.5l3.8-1.1l-0.7-2.2l-3.8,1.1L369.9,952.5z M372,948c0,0.9,0.1,1.7,0.3,2.5l2.3-0.5 c-0.2-0.7-0.2-1.3-0.2-2H372z M372.4,944.8c-0.3,1-0.5,2.1-0.5,3.2h2.3c0-0.9,0.1-1.7,0.4-2.5L372.4,944.8z M367.7,944.8l5.6,1.5 l0.6-2.2l-5.6-1.4L367.7,944.8z M372,936.1l-5,6.9l1.9,1.4l5-6.9L372,936.1z M378.9,937.1l-5.7-1.4l-0.6,2.2l5.7,1.4L378.9,937.1z M384.4,933.7c-2.4,1-4.6,2.2-6.5,3.6l1.4,1.8c1.6-1.3,3.6-2.4,5.9-3.3L384.4,933.7z M385.8,934.2l-1.7-2.8l-2,1.2l1.7,2.8 L385.8,934.2z M383.4,933.1l8.5-2.3l-0.6-2.2l-8.5,2.3L383.4,933.1z M390.7,930.3l1.9,3l2-1.2l-1.9-3L390.7,930.3z M397.7,931.3 c-1.5,0-2.9,0.1-4.3,0.2l0.2,2.3c1.3-0.1,2.7-0.2,4-0.2V931.3z M400,931.4c-0.8,0-1.5-0.1-2.3-0.1v2.3c0.7,0,1.5,0,2.2,0.1 L400,931.4z M401.3,928.6l-2.2,3.3l1.9,1.3l2.2-3.3L401.3,928.6z M412.8,930.4l-10.4-2.3l-0.5,2.3l10.4,2.3L412.8,930.4z M411.5,935.4l2.1-3.2l-1.9-1.3l-2.1,3.2L411.5,935.4z M416.5,936.5c-1.6-1.1-3.5-2.1-5.6-2.9l-0.8,2.2c1.9,0.7,3.6,1.6,5.1,2.6 L416.5,936.5z M416.2,938.6l5.2-1.6l-0.7-2.2l-5.2,1.6L416.2,938.6z M420.1,936.6l4.5,6.8l1.9-1.3l-4.5-6.8L420.1,936.6z M425.2,941.6l-4.1,1.2l0.7,2.2l4.1-1.2L425.2,941.6z M423.4,948c0-1.6-0.3-3.1-0.9-4.5l-2.1,0.9c0.5,1.1,0.7,2.3,0.7,3.6H423.4z M423.3,949.4c0.1-0.5,0.1-1,0.1-1.5h-2.3c0,0.4,0,0.8-0.1,1.2L423.3,949.4z M428.6,949.7l-6.1-1.5l-0.6,2.2l6.1,1.5L428.6,949.7z M424.6,958.7l4.7-7.3l-2-1.3l-4.7,7.3L424.6,958.7z M417.7,957.8l5.6,1.5l0.6-2.2l-5.6-1.5L417.7,957.8z M411.8,961.9 c2.7-1.1,5.1-2.6,7-4.4l-1.6-1.7c-1.7,1.5-3.8,2.9-6.4,4L411.8,961.9z M410.3,961.5l1.7,2.7l2-1.2l-1.7-2.7L410.3,961.5z M412.8,962.4l-9.3,2.3l0.6,2.3l9.3-2.3L412.8,962.4z M404.7,965.3l-1.6-2.7l-2,1.2l1.6,2.7L404.7,965.3z M397.7,964.6 c1.5,0,3-0.1,4.5-0.2l-0.3-2.3c-1.4,0.2-2.8,0.2-4.2,0.2V964.6z M391.6,964.1c2,0.3,4,0.5,6.2,0.5v-2.3c-2,0-3.9-0.2-5.8-0.4 L391.6,964.1z M390.2,967.3l2.4-3.7l-1.9-1.3l-2.4,3.7L390.2,967.3z M378.3,965.1l10.7,2.7l0.6-2.2l-10.7-2.7L378.3,965.1z"></path> <path class="st39" d="M408.4,948c0,1.5-0.9,2.9-2.8,4.1c-1.9,1.2-4.5,1.9-7.5,1.9c-3,0-5.6-0.8-7.5-1.9c-1.9-1.2-2.8-2.7-2.8-4.1 c0-1.5,0.9-2.9,2.8-4.1c1.9-1.2,4.5-1.9,7.5-1.9c3,0,5.6,0.8,7.5,1.9C407.5,945,408.4,946.5,408.4,948z"></path> </g> </g> </svg> 