<?xml version="1.0" encoding="utf-8"?>
<!-- Svg Vector Icons : http://www.onlinewebfonts.com/icon -->
<!DOCTYPE svg PUBLIC "-//W3C//DTD SVG 1.1//EN" "http://www.w3.org/Graphics/SVG/1.1/DTD/svg11.dtd">
<svg version="1.1" xmlns="http://www.w3.org/2000/svg" xmlns:xlink="http://www.w3.org/1999/xlink" x="0px" y="0px" viewBox="0 0 256 256" enable-background="new 0 0 256 256" xml:space="preserve">
<metadata> Svg Vector Icons : http://www.onlinewebfonts.com/icon </metadata>
<g><g><g><path fill="#000000" d="M79.2,10.7c-4.6,1.6-7.9,5-9.4,9.6c-0.7,2-0.7,9.6-0.6,79.1l0.1,76.8l1.2,2.3c1.5,3,4.2,5.6,7.3,7.1l2.6,1.2h77.3h77.3l2.2-1c3.5-1.6,5.6-3.6,7.3-6.7l1.6-2.9V98.5V20.8l-1.2-2.3c-1.4-3-4.2-5.7-7.2-7.2l-2.3-1.1l-77.1-0.1C89.2,10,81.1,10,79.2,10.7z M228.1,25.9c0.7,0.5,1.7,1.5,2.2,2.2c1,1.2,1,1.4,1.1,69.8c0.1,76.3,0.4,70.4-3,72.9l-1.6,1.2h-69.1c-69.1,0-69.1,0-70.4-1c-0.7-0.5-1.7-1.5-2.2-2.2c-1-1.2-1-1.4-1.1-69.2c0-37.4,0-68.6,0.1-69.4c0.3-1.8,2.3-4.2,4.2-5c1.2-0.5,13.7-0.6,70-0.5C226.7,24.9,226.8,24.9,228.1,25.9z"/><path fill="#000000" d="M20.3,69.7c-4.3,1.4-8,5.1-9.6,9.6c-0.6,2-0.7,9.3-0.7,78.3c0,84.7-0.2,78.4,3.2,82.9c1.1,1.4,2.7,2.8,4.7,3.8l3,1.7h77.7h77.7l2.9-1.6c3.2-1.8,4.6-3.2,6.5-6.7l1.2-2.4l0.1-16.7l0.1-16.7h-7.4h-7.4l-0.1,12.4l-0.1,12.4l-1.2,1.6c-2.6,3.4,3.4,3.1-72.9,3l-68.5-0.1l-1.7-1.3c-3.3-2.5-3,2.9-3-72.9C25,88.6,25,88.4,26,87.2c0.5-0.7,1.5-1.7,2.2-2.2c1.2-0.9,2-1,13.7-1.1l12.4-0.1v-7.3V69l-16,0C26.6,69.1,21.7,69.2,20.3,69.7z"/></g></g></g>
</svg>